<svg width="24" height="24" viewBox="0 0 24 24" fill="none" xmlns="http://www.w3.org/2000/svg">
<path fill-rule="evenodd" clip-rule="evenodd" d="M9.97003 7.47007C10.1107 7.32962 10.3013 7.25073 10.5 7.25073C10.6988 7.25073 10.8894 7.32962 11.03 7.47007L15.03 11.4701C15.1705 11.6107 15.2494 11.8013 15.2494 12.0001C15.2494 12.1988 15.1705 12.3894 15.03 12.5301L11.03 16.5301C10.9614 16.6038 10.8786 16.6629 10.7866 16.7039C10.6946 16.7448 10.5953 16.7669 10.4946 16.7687C10.3939 16.7704 10.2938 16.7519 10.2004 16.7142C10.107 16.6765 10.0222 16.6203 9.95099 16.5491C9.87978 16.4779 9.82363 16.3931 9.78591 16.2997C9.74819 16.2063 9.72966 16.1063 9.73144 16.0056C9.73322 15.9048 9.75526 15.8055 9.79625 15.7135C9.83724 15.6215 9.89635 15.5387 9.97003 15.4701L13.44 12.0001L9.97003 8.53007C9.82958 8.38945 9.75069 8.19882 9.75069 8.00007C9.75069 7.80132 9.82958 7.6107 9.97003 7.47007Z" fill="white" fill-opacity="0.81"/>
</svg>
