<svg width="24" height="24" viewBox="0 0 24 24" fill="none" xmlns="http://www.w3.org/2000/svg">
<path fill-rule="evenodd" clip-rule="evenodd" d="M14.03 7.47007C14.1704 7.6107 14.2493 7.80132 14.2493 8.00007C14.2493 8.19882 14.1704 8.38945 14.03 8.53007L10.56 12.0001L14.03 15.4701C14.1036 15.5387 14.1627 15.6215 14.2037 15.7135C14.2447 15.8055 14.2668 15.9048 14.2685 16.0056C14.2703 16.1063 14.2518 16.2063 14.2141 16.2997C14.1764 16.3931 14.1202 16.4779 14.049 16.5491C13.9778 16.6203 13.8929 16.6765 13.7995 16.7142C13.7062 16.7519 13.6061 16.7704 13.5054 16.7687C13.4047 16.7669 13.3054 16.7448 13.2134 16.7039C13.1214 16.6629 13.0386 16.6038 12.97 16.5301L8.96995 12.5301C8.8295 12.3894 8.75061 12.1988 8.75061 12.0001C8.75061 11.8013 8.8295 11.6107 8.96995 11.4701L12.97 7.47007C13.1106 7.32962 13.3012 7.25073 13.5 7.25073C13.6987 7.25073 13.8893 7.32962 14.03 7.47007Z" fill="white" fill-opacity="0.81"/>
</svg>
