<svg width="24" height="24" viewBox="0 0 24 24" fill="none" xmlns="http://www.w3.org/2000/svg">
<path d="M5.856 6.84C5.74176 6.77839 5.61348 6.74748 5.48371 6.7503C5.35395 6.75312 5.22713 6.78957 5.11567 6.85608C5.00421 6.92259 4.91192 7.01689 4.84782 7.12976C4.78373 7.24263 4.75002 7.3702 4.75 7.5V17C4.75 17.1989 4.82902 17.3897 4.96967 17.5303C5.11032 17.671 5.30109 17.75 5.5 17.75C5.69891 17.75 5.88968 17.671 6.03033 17.5303C6.17098 17.3897 6.25 17.1989 6.25 17V8.756L11.644 11.66C11.866 11.78 12.134 11.78 12.356 11.66L17.75 8.756V17C17.75 17.1989 17.829 17.3897 17.9697 17.5303C18.1103 17.671 18.3011 17.75 18.5 17.75C18.6989 17.75 18.8897 17.671 19.0303 17.5303C19.171 17.3897 19.25 17.1989 19.25 17V7.5C19.25 7.3702 19.2163 7.24263 19.1522 7.12976C19.0881 7.01689 18.9958 6.92259 18.8843 6.85608C18.7729 6.78957 18.6461 6.75312 18.5163 6.7503C18.3865 6.74748 18.2582 6.77839 18.144 6.84L12 10.148L5.856 6.84Z" fill="white" fill-opacity="0.81"/>
<path fill-rule="evenodd" clip-rule="evenodd" d="M17.3101 3.722C13.7771 3.40614 10.223 3.40614 6.69006 3.722L5.17206 3.857C4.38135 3.9276 3.63752 4.26268 3.0607 4.8081C2.48389 5.35353 2.10776 6.07747 1.99306 6.863C1.49499 10.2696 1.49499 13.7304 1.99306 17.137C2.10801 17.9225 2.48437 18.6463 3.06137 19.1916C3.63837 19.7368 4.38232 20.0716 5.17306 20.142L6.68906 20.278C10.2231 20.594 13.7771 20.594 17.3111 20.278L18.8281 20.142C19.6186 20.0714 20.3623 19.7365 20.9391 19.1913C21.5159 18.646 21.8922 17.9223 22.0071 17.137C22.5051 13.7304 22.5051 10.2696 22.0071 6.863C21.8923 6.07731 21.516 5.35326 20.939 4.80781C20.362 4.26237 19.618 3.92739 18.8271 3.857L17.3101 3.722ZM6.82406 5.216C10.2685 4.90803 13.7336 4.90803 17.1781 5.216L18.6951 5.352C19.1498 5.39239 19.5777 5.5849 19.9096 5.89845C20.2414 6.21199 20.4579 6.62825 20.5241 7.08C21.0011 10.3426 21.0011 13.6573 20.5241 16.92C20.4579 17.3717 20.2414 17.788 19.9096 18.1015C19.5777 18.4151 19.1498 18.6076 18.6951 18.648L17.1781 18.784C13.7341 19.092 10.2681 19.092 6.82406 18.784L5.30706 18.648C4.85229 18.6076 4.42442 18.4151 4.09255 18.1015C3.76068 17.788 3.54419 17.3717 3.47806 16.92C3.00103 13.6573 3.00103 10.3427 3.47806 7.08C3.54419 6.62825 3.76068 6.21199 4.09255 5.89845C4.42442 5.5849 4.85229 5.39239 5.30706 5.352L6.82406 5.216Z" fill="white" fill-opacity="0.81"/>
</svg>
