<svg width="24" height="24" viewBox="0 0 24 24" fill="none" xmlns="http://www.w3.org/2000/svg">
<path d="M21.707 20.293L18.307 16.893C19.4029 15.4974 19.999 13.7745 20 12H18C17.9987 13.2442 17.6073 14.4568 16.881 15.467L15.432 14.017C15.8018 13.4091 15.9982 12.7116 16 12V6C16 3.783 14.215 1.979 12.021 1.979C11.951 1.979 11.8813 1.98734 11.812 2.004C10.7852 2.05378 9.81693 2.49636 9.10738 3.24016C8.39783 3.98395 8.00136 4.97205 8 6V6.586L3.707 2.293L2.293 3.707L20.293 21.707L21.707 20.293ZM6 12H4C4 16.072 7.06 19.436 11 19.931V22H13V19.931C13.7737 19.8314 14.5287 19.6191 15.241 19.301L13.692 17.753C13.1427 17.9157 12.5729 17.9989 12 18C8.691 18 6 15.309 6 12Z" fill="white" fill-opacity="0.81"/>
<path d="M8.00699 12.0669C8.02498 13.1025 8.44438 14.0907 9.17679 14.8231C9.90919 15.5555 10.8974 15.9749 11.933 15.9929L8.00699 12.0669Z" fill="white" fill-opacity="0.81"/>
</svg>
