<svg width="64" height="64" viewBox="0 0 64 64" fill="none" xmlns="http://www.w3.org/2000/svg">
<path opacity="0.3" d="M16 18.6667V26.6667H13.3333V53.3333H56V21.3333H45.2L40.32 16H24V18.6667H16ZM34.6666 24C42.0266 24 48 29.9733 48 37.3333C48 44.6933 42.0266 50.6667 34.6666 50.6667C27.3066 50.6667 21.3333 44.6933 21.3333 37.3333C21.3333 29.9733 27.3066 24 34.6666 24Z" fill="black"/>
<path d="M56 16H47.5467L42.6667 10.6667H24V16H40.32L45.2 21.3333H56V53.3333H13.3333V26.6667H8V53.3333C8 56.2667 10.4 58.6667 13.3333 58.6667H56C58.9333 58.6667 61.3333 56.2667 61.3333 53.3333V21.3333C61.3333 18.4 58.9333 16 56 16ZM21.3333 37.3333C21.3333 44.6933 27.3067 50.6667 34.6667 50.6667C42.0267 50.6667 48 44.6933 48 37.3333C48 29.9733 42.0267 24 34.6667 24C27.3067 24 21.3333 29.9733 21.3333 37.3333ZM34.6667 29.3333C39.0667 29.3333 42.6667 32.9333 42.6667 37.3333C42.6667 41.7333 39.0667 45.3333 34.6667 45.3333C30.2667 45.3333 26.6667 41.7333 26.6667 37.3333C26.6667 32.9333 30.2667 29.3333 34.6667 29.3333ZM13.3333 24V16H21.3333V10.6667H13.3333V2.66666H8V10.6667H0V16H8V24H13.3333Z" fill="black"/>
</svg>
